<?xml version="1.0" encoding="UTF-8" standalone="no"?>
<svg
   xmlns:dc="http://purl.org/dc/elements/1.1/"
   xmlns:cc="http://creativecommons.org/ns#"
   xmlns:rdf="http://www.w3.org/1999/02/22-rdf-syntax-ns#"
   xmlns:svg="http://www.w3.org/2000/svg"
   xmlns="http://www.w3.org/2000/svg"
   xmlns:sodipodi="http://sodipodi.sourceforge.net/DTD/sodipodi-0.dtd"
   xmlns:inkscape="http://www.inkscape.org/namespaces/inkscape"
   height="64"
   version="1.0"
   viewBox="0 0 64 64"
   width="64"
   xml:space="preserve"
   id="svg2"
   inkscape:version="0.91 r13725"
   sodipodi:docname="Output.svg"
   inkscape:export-filename="/home/ljp/Science/Tools/Scam/Style/Icons/Output.png"
   inkscape:export-xdpi="140.62"
   inkscape:export-ydpi="140.62"><metadata
     id="metadata28"><rdf:RDF><cc:Work
         rdf:about=""><dc:format>image/svg+xml</dc:format><dc:type
           rdf:resource="http://purl.org/dc/dcmitype/StillImage" /><dc:title /></cc:Work></rdf:RDF></metadata><defs
     id="defs26" /><sodipodi:namedview
     pagecolor="#ffffff"
     bordercolor="#666666"
     borderopacity="1"
     objecttolerance="10"
     gridtolerance="10"
     guidetolerance="10"
     inkscape:pageopacity="0"
     inkscape:pageshadow="2"
     inkscape:window-width="2493"
     inkscape:window-height="1416"
     id="namedview24"
     showgrid="false"
     inkscape:zoom="6.0682618"
     inkscape:cx="7.5205773"
     inkscape:cy="52.300117"
     inkscape:window-x="67"
     inkscape:window-y="24"
     inkscape:window-maximized="1"
     inkscape:current-layer="svg2"
     fit-margin-top="0"
     fit-margin-left="0"
     fit-margin-right="0"
     fit-margin-bottom="0" /><g
     id="Artboard"
     transform="translate(-23,-22.98)" /><path
     d="m 64,6 0,52 c 0,3.31 -2.69,6 -6,6 L 6,64 C 2.69,64 0,61.31 0,58 L 0,6 C 0,2.69 2.69,0 6,0 l 52,0 c 3.31,0 6,2.69 6,6 z"
     style="fill:#0484ab"
     id="path10"
     inkscape:connector-curvature="0" /><path
     d="M 64,8.95 64,58 c 0,3.31 -2.69,6 -6,6 L 6,64 C 2.69,64 0,61.31 0,58 l 0,-13.74 11.21,-7.21 17.01,3 L 43.75,29.7 52.71,13.79 64,8.95 Z"
     style="fill:#059bbf"
     id="path12"
     inkscape:connector-curvature="0" /><path
     d="m 64,17 0,-2 -7,0 0,-4 -2,0 0,4 -5,0 0,2 5,0 0,6 -6,0 0,-3 -2,0 0,3 -1,0 0,2 1,0 0,6 -6,0 0,0 -2,0 0,0 0,0 0,2 0,0 0,6 -6,0 0,-2 -2,0 0,2 -6,0 0,-1.001 -2,0 0,1.001 -6,0 0,-2 -2,0 0,2 -6,0 0,-1.001 -2,0 0,1.001 -2.22,0 0,2 2.22,0 0,6 -7,0 0,2 7,0 0,6 -7,0 0,2 7,0 0,6.999 2,0 0,-6.999 6,0 0,7 2,0 0,-7 6,0 0,6.999 2,0 0,-6.999 6,0 0,7 2,0 0,-7 6,0 0,7 2,0 0,-7 6,0 0,7 2,0 0,-7 6,0 0,7 2,0 0,-7 7,0 0,-2 -7,0 0,-6 7,0 0,-2 -7,0 0,-6 7,0 0,-2 -7,0 0,-6 7,0 0,-2 -7,0 0,-6 7,0 0,-2 -7,0 0,-6 7,0 z m -23,16 6,0 0,6 -6,0 0,-6 z m 6,8 0,6 -6,0 0,-6 6,0 z m -8,0 0,6 -6,0 0,-6 6,0 z m -8,0 0,6 -6,0 0,-6 6,0 z m -8,0 0,6 -6,0 0,-6 6,0 z m -14,0 6,0 0,6 -6,0 0,-6 z m 0,14 0,-6 6,0 0,6 -6,0 z m 8,0 0,-6 6,0 0,6 -6,0 z m 8,0 0,-6 6,0 0,6 -6,0 z m 8,0 0,-6 6,0 0,6 -6,0 z m 8,0 0,-6 6,0 0,6 -6,0 z m 14,0 -6,0 0,-6 6,0 0,6 z m 0,-8 -6,0 0,-6 6,0 0,6 z m 0,-8 -6,0 0,-6 6,0 0,6 z m 0,-8 -6,0 0,-6 6,0 0,6 z"
     style="fill:#21b2d1"
     id="path14"
     inkscape:connector-curvature="0" /><path
     d="m 64,6.77 -10.657,4.561 c -2.675,-1.35 -5.437,1.629 -3.915,4.192 L 43.512,26.052 C 41.374,25.681 39.563,27.607 40.1,29.733 L 29.792,36.608 C 29.292,36.231 28.675,36 28,36 c -1.12,0 -2.084,0.621 -2.6,1.53 L 13.95,35.508 C 13.271,31.413 7.157,32.733 8.086,36.686 L 0,41.88 0,44.26 9.17,38.362 c 1.483,1.151 3.537,0.68 4.429,-0.891 l 11.45,2.02 c 0.235,1.422 1.462,2.509 2.95,2.509 1.892,0 3.398,-1.766 2.898,-3.735 l 10.31,-6.871 c 2.853,2.14 6.397,-1.663 4.042,-4.358 l 5.754,-10.218 c 2.462,0.871 4.714,-1.556 3.781,-3.917 L 64,8.95 64,6.77 Z"
     style="fill:#ffffff"
     id="path16"
     inkscape:connector-curvature="0" /></svg>